<?xml version="1.0" encoding="UTF-8"?>
<svg width="24px" height="24px" viewBox="0 0 24 24" version="1.1" xmlns="http://www.w3.org/2000/svg" xmlns:xlink="http://www.w3.org/1999/xlink">
    <!-- Generator: Sketch 64 (93537) - https://sketch.com -->
    <title>@1xIconly/Two-tone/Scan</title>
    <desc>Created with Sketch.</desc>
    <g id="Iconly/Two-tone/Scan" stroke="none" stroke-width="1" fill="none" fill-rule="evenodd" stroke-linecap="round" stroke-linejoin="round">
        <g id="Scan" transform="translate(1.500000, 3.000000)" stroke="#200E32" stroke-width="1.5">
            <path d="M19.1763266,5.82105266 L19.1763266,4.76184213 C19.1787689,3.70580957 18.7603474,2.69232284 18.0136176,1.94559304 C17.2668878,1.19886324 16.2534011,0.780441694 15.1973685,0.782884015 L14.4328948,0.782884015" id="Path_33950" opacity="0.400000006"></path>
            <path d="M2.59735773,5.82105266 L2.59735773,4.76184213 C2.59492194,3.70740752 3.0120806,2.6953216 3.756816,1.94885827 C4.50155141,1.20239494 5.51266785,0.782894741 6.5671053,0.782894741 L7.36842109,0.782894741" id="Path_33951" opacity="0.400000006"></path>
            <path d="M19.1763266,9.86447373 L19.1763266,13.3828948 C19.1787689,14.4389274 18.7603474,15.4524141 18.0136176,16.1991439 C17.2668878,16.9458737 16.2534011,17.3642952 15.1973685,17.3618529 L14.4328948,17.3618529" id="Path_33952"></path>
            <path d="M2.59735771,9.86447373 L2.59735771,13.3828948 C2.59491539,14.4389274 3.01333693,15.4524141 3.76006673,16.1991439 C4.50679653,16.9458737 5.52028326,17.3642952 6.57631582,17.3618529 L7.36842109,17.3618529" id="Path_33953"></path>
            <line x1="20.9539475" y1="9.86447373" x2="0.782894741" y2="9.86447373" id="Line_187"></line>
        </g>
    </g>
</svg>