<?xml version="1.0" encoding="UTF-8"?>
<svg width="24px" height="24px" viewBox="0 0 24 24" version="1.1" xmlns="http://www.w3.org/2000/svg" xmlns:xlink="http://www.w3.org/1999/xlink">
    <!-- Generator: Sketch 64 (93537) - https://sketch.com -->
    <title>@1xIconly/Two-tone/Star</title>
    <desc>Created with Sketch.</desc>
    <g id="Iconly/Two-tone/Star" stroke="none" stroke-width="1" fill="none" fill-rule="evenodd" stroke-linecap="round" stroke-linejoin="round">
        <g id="Star" transform="translate(2.000000, 2.500000)" stroke="#200E32" stroke-width="1.5">
            <path d="M10.7510899,0.465848222 L13.1896744,5.37983808 C13.3092325,5.62682002 13.5445504,5.79947255 13.818372,5.84111299 L19.27661,6.63186998 C19.4981066,6.66215322 19.69818,6.77863622 19.8323437,6.95541899 C19.9665075,7.13220176 20.0236404,7.3546302 19.991039,7.57324735 C19.9636144,7.75295424 19.8764848,7.91854198 19.7433703,8.04393603 L15.7901962,11.8847557 C15.5903963,12.0740415 15.5008214,12.3502309 15.5520531,12.61903 L16.5046252,18.0319499 C16.5735551,18.4779597 16.2686471,18.8964663 15.8187733,18.9733273 C15.6332725,19.0020436 15.4433308,18.9724052 15.2758072,18.8886033 L10.4081639,16.3374706 C10.1650076,16.2051512 9.8702112,16.2051512 9.62705484,16.3374706 L4.73083438,18.9074309 C4.32004652,19.1157439 3.81611323,18.9609001 3.59727361,18.5591212 C3.5119493,18.3971219 3.4818783,18.2122123 3.51154212,18.0319499 L4.4641142,12.61903 C4.51018805,12.3505705 4.42137435,12.0767283 4.22597118,11.8847557 L0.244219906,8.04393603 C-0.0814066352,7.71769774 -0.0814066352,7.19345262 0.244219906,6.86721432 C0.377114893,6.74561581 0.542333314,6.66397743 0.720505943,6.63186998 L6.17874393,5.84111299 C6.45127197,5.79643705 6.68531738,5.62471811 6.8074415,5.37983808 L9.24602601,0.465848222 C9.34238119,0.266600231 9.51607275,0.114249774 9.7277031,0.0433537575 C9.93933345,-0.0275422592 10.1709661,-0.0109751409 10.3700611,0.0892972745 C10.5343245,0.171623506 10.6677846,0.303515209 10.7510899,0.465848222 Z"></path>
        </g>
    </g>
</svg>