<?xml version="1.0" encoding="UTF-8"?>
<svg width="18px" height="18px" viewBox="0 0 18 18" version="1.1" xmlns="http://www.w3.org/2000/svg" xmlns:xlink="http://www.w3.org/1999/xlink">
    <title>basic / exit</title>
    <defs>
        <rect id="path-1" x="0" y="0" width="24" height="24"></rect>
    </defs>
    <g id="💙-coolicons" stroke="none" stroke-width="1" fill="none" fill-rule="evenodd">
        <g id="Basic" transform="translate(-43.000000, -499.000000)">
            <g id="Group" transform="translate(40.000000, 496.000000)">
                <g id="basic-/-exit" transform="translate(12.000000, 12.000000) rotate(180.000000) translate(-12.000000, -12.000000) ">
                    <mask id="mask-2" fill="white">
                        <use xlink:href="#path-1"></use>
                    </mask>
                    <g id="basic-/-exit-(Background/Mask)"></g>
                    <path d="M5.00199986,3 C3.89899981,3 3.00200009,3.89699996 3.00200009,5 L3.00200009,9 L5.00199986,9 L5.00199986,5 L19.0020008,5 L19.0020008,19 L5.00199986,19 L5.00199986,15 L3.00200009,15 L3.00200009,19 C3.00200009,20.103 3.89899981,21 5.00199986,21 L19.0020008,21 C20.1050009,21 21.0020008,20.103 21.0020008,19 L21.0020008,5 C21.0020008,3.89699996 20.1040008,3 19.0020008,3 L5.00199986,3 Z M16,12 L11,8 L11,11.0010004 L3,11.0010004 L3,13.0010004 L11,13.0010004 L11,16 L16,12 Z" fill="#2E2E2E" mask="url(#mask-2)"></path>
                </g>
            </g>
        </g>
    </g>
</svg>
